<?xml version="1.0" encoding="utf-8"?>
<!-- Generator: Adobe Illustrator 24.0.1, SVG Export Plug-In . SVG Version: 6.00 Build 0)  -->
<svg version="1.1" id="Capa_1" xmlns="http://www.w3.org/2000/svg" xmlns:xlink="http://www.w3.org/1999/xlink" x="0px" y="0px"
	 viewBox="0 0 1451 819" style="enable-background:new 0 0 1451 819;" xml:space="preserve">
<style type="text/css">
	.st0{fill:#00CCA3;}
	.st1{opacity:0.4;clip-path:url(#SVGID_2_);}
	.st2{fill:#00B58D;}
</style>
<rect x="0" y="-0.08" class="st0" width="1456.65" height="820.82"/>
<g>
	<defs>
		<rect id="SVGID_1_" x="0" y="-0.08" width="1456.65" height="820.82"/>
	</defs>
	<clipPath id="SVGID_2_">
		<use xlink:href="#SVGID_1_"  style="overflow:visible;"/>
	</clipPath>
	<g class="st1">
		<g>
			<path class="st2" d="M231.92,454.33c-23.01,13.35-51.11,17.95-78.79,10.59c-26.82-7.12-49.26-24.27-63.19-48.27
				c-13.93-24-17.68-51.99-10.55-78.81L217.63-182.6c7.12-26.82,24.27-49.26,48.27-63.19c24-13.93,51.99-17.68,78.81-10.55
				c55.37,14.71,88.45,71.71,73.74,127.08L280.21,391.18C272.86,418.87,254.93,440.98,231.92,454.33z M282.43-217.3
				c-16.39,9.51-28.09,24.83-32.96,43.15L111.23,346.3c-4.87,18.32-2.31,37.43,7.2,53.82c9.51,16.39,24.83,28.1,43.15,32.96
				c37.81,10.04,76.73-12.54,86.78-50.35L386.6-137.72c10.04-37.81-12.55-76.73-50.35-86.78
				C317.93-229.36,298.82-226.81,282.43-217.3z"/>
		</g>
		<g>
			<path class="st2" d="M486.7,257.9L-33.75,119.66c-46.66-12.39-74.44-60.27-62.05-106.93l0,0C-83.4-33.93-35.53-61.71,11.13-49.32
				L531.58,88.92c46.66,12.39,74.44,60.27,62.05,106.93l0,0C581.24,242.51,533.36,270.29,486.7,257.9z"/>
		</g>
	</g>
	<g class="st1">
		<g>
			<path class="st2" d="M942.93,925.6c-23.01,13.36-51.1,17.95-78.79,10.59L343.69,797.96c-55.37-14.71-88.45-71.71-73.74-127.08
				c7.12-26.82,24.27-49.26,48.27-63.19c24-13.93,51.99-17.68,78.82-10.55l0,0l520.45,138.24c26.82,7.12,49.26,24.27,63.19,48.27
				c13.93,24,17.68,51.99,10.55,78.81C983.87,890.14,965.93,912.25,942.93,925.6z M334.75,636.19
				c-16.39,9.51-28.1,24.83-32.96,43.15c-10.04,37.81,12.54,76.74,50.35,86.78l520.45,138.24c37.81,10.04,76.73-12.55,86.78-50.35
				c4.87-18.32,2.31-37.43-7.21-53.82s-24.83-28.1-43.15-32.96L388.57,628.98C370.26,624.12,351.15,626.68,334.75,636.19z"/>
		</g>
		<g>
			<path class="st2" d="M476.98,1004.45L615.22,484c12.39-46.66,60.27-74.44,106.93-62.05l0,0c46.66,12.39,74.44,60.27,62.05,106.93
				l-138.24,520.45c-12.39,46.66-60.27,74.44-106.93,62.05l0,0C492.36,1098.98,464.58,1051.11,476.98,1004.45z"/>
		</g>
	</g>
	<g class="st1">
		<g>
			<path class="st2" d="M596.47,121.53c13.36,23.01,17.95,51.1,10.59,78.79L468.82,720.77c-14.71,55.37-71.71,88.45-127.08,73.74
				c-26.82-7.12-49.26-24.27-63.19-48.27c-13.93-24-17.68-51.99-10.55-78.82l0,0l138.24-520.45c7.12-26.82,24.27-49.26,48.27-63.19
				c24-13.93,51.99-17.68,78.81-10.55C561.01,80.59,583.12,98.52,596.47,121.53z M307.05,729.7c9.51,16.39,24.83,28.1,43.15,32.96
				c37.81,10.04,76.74-12.54,86.78-50.35l138.24-520.45c10.04-37.81-12.55-76.73-50.35-86.78c-18.32-4.87-37.43-2.31-53.82,7.21
				c-16.39,9.51-28.1,24.83-32.96,43.15L299.85,675.88C294.98,694.2,297.54,713.31,307.05,729.7z"/>
		</g>
		<g>
			<path class="st2" d="M675.32,587.48L154.87,449.24c-46.66-12.39-74.44-60.27-62.05-106.93l0,0
				c12.39-46.66,60.27-74.44,106.93-62.05L720.2,418.5c46.66,12.39,74.44,60.27,62.05,106.93l0,0
				C769.85,572.09,721.98,599.87,675.32,587.48z"/>
		</g>
	</g>
</g>
</svg>
