<?xml version="1.0" encoding="utf-8"?>
<!-- Generator: Adobe Illustrator 24.0.1, SVG Export Plug-In . SVG Version: 6.00 Build 0)  -->
<svg version="1.1" id="Capa_1" xmlns="http://www.w3.org/2000/svg" xmlns:xlink="http://www.w3.org/1999/xlink" x="0px" y="0px"
	 viewBox="0 0 1500 1500" style="enable-background:new 0 0 1500 1500;" xml:space="preserve">
<style type="text/css">
	.st0{fill:#00CCA3;}
	.st1{fill:#FFFFFF;}
</style>
<path class="st0" d="M-32.7,0H1046c250.7,0,454,153.5,454,342.8v814.5c0,189.3-203.3,342.8-454,342.8H-32.7
	c-250.7,0-454-153.5-454-342.8V342.8C-486.6,153.5-283.4,0-32.7,0z"/>
<g>
	<g>
		<path class="st1" d="M751.3,1104.9c-58.4,0-116.8,0-175.2,0c-47.5-0.1-86.2-26.3-102.8-70.8c-3.9-10.5-6.3-22.2-6.5-33.4
			c-0.6-59.6-0.4-119.2-0.2-178.8c0.1-16.3,10.9-30.5,25-34.2c15.8-4.1,31.7,1.5,39.1,15.6c3.3,6.2,4.9,14.1,4.9,21.2
			c0.4,56.2,0.3,112.4,0.3,168.6c0,28.3,13.9,42.2,42.1,42.2c114.9,0,229.8-0.1,344.8-0.1c28.2,0,42-13.9,42-42.2
			c0.1-57.5,0-114.9,0.2-172.4c0-16.9,11.9-31.1,27.4-33.7c18.7-3.1,34.5,5.8,40.2,23.1c1.3,4,1.7,8.5,1.7,12.7
			c0.1,58.7,0.3,117.4,0.1,176.1c-0.2,58.6-47.5,105.5-106.3,106.1c-0.6,0-1.2,0-1.8,0c-58.4,0-116.8,0-175.2,0
			C751.3,1105,751.3,1104.9,751.3,1104.9z"/>
		<path class="st1" d="M1018.5,615.8c24.7,23.8,49.2,47.7,74,71.4c7.8,7.5,11.8,16.4,12.6,27.2c-1.5,14-7.4,25.3-20.9,31.3
			c-14.7,6.5-27.9,3.4-39.2-7.4c-21.2-20.3-42.2-40.8-63.2-61.3c-69.2-67.1-138.3-134.2-207.5-201.3c-16.5-16.1-32.7-16-49.4,0.2
			C635.3,562.7,545.6,649.5,456,736.3c-10.5,10.2-22.4,15.2-37,10.4c-13.7-4.4-21.5-14.2-23.7-28.2c-2-12.2,2.9-22.3,11.6-30.7
			c28.4-27.5,56.8-55,85.2-82.5c62.8-60.8,125.5-121.6,188.4-182.4c38.3-37,99.6-37.4,138.2-0.3L1018.5,615.8z"/>
	</g>
</g>
</svg>
