<?xml version="1.0" encoding="utf-8"?>
<!-- Generator: Adobe Illustrator 24.0.1, SVG Export Plug-In . SVG Version: 6.00 Build 0)  -->
<svg version="1.1" id="Capa_1" xmlns="http://www.w3.org/2000/svg" xmlns:xlink="http://www.w3.org/1999/xlink" x="0px" y="0px"
	 viewBox="0 0 1500 1500" style="enable-background:new 0 0 1500 1500;" xml:space="preserve">
<style type="text/css">
	.st0{display:none;fill:url(#XMLID_5_);}
	.st1{display:none;fill:url(#XMLID_6_);}
	.st2{display:none;fill:url(#XMLID_7_);}
	.st3{fill:none;stroke:#00CCA3;stroke-width:19.7868;stroke-miterlimit:10;}
	.st4{fill:#00CCA3;}
</style>
<linearGradient id="XMLID_5_" gradientUnits="userSpaceOnUse" x1="441.0166" y1="833.338" x2="1103.9438" y2="833.338" gradientTransform="matrix(1 0 0 1 -29.2984 -94.7016)">
	<stop  offset="0" style="stop-color:#00CCA3"/>
	<stop  offset="1" style="stop-color:#00CCA3"/>
</linearGradient>
<path id="XMLID_943_" class="st0" d="M411.72,388.04v701.21c0,54.6,46.38,99.02,103.42,99.02h456.09c57,0,103.42-40.89,103.42-91.16
	V462.68c0-28.44-14.72-54.7-39.84-71.9v-2.74c0-54.62-46.38-99.04-103.42-99.04H515.14C458.1,289,411.72,333.42,411.72,388.04z
	 M444.76,388.04c0-36.38,31.58-65.98,70.37-65.98h416.25c38.79,0,70.33,29.6,70.33,65.98v11.95c0,6,3.27,11.55,8.52,14.47
	c19.6,10.87,31.32,28.9,31.32,48.22v634.43c0,32.03-31.54,58.1-70.33,58.1H515.14c-38.79,0-70.37-29.59-70.37-65.96V388.04z"/>
<linearGradient id="XMLID_6_" gradientUnits="userSpaceOnUse" x1="521.0977" y1="635.2278" x2="1023.8582" y2="635.2278" gradientTransform="matrix(1 0 0 1 -29.2984 -94.7016)">
	<stop  offset="0" style="stop-color:#00CCA3"/>
	<stop  offset="1" style="stop-color:#00CCA3"/>
</linearGradient>
<path id="XMLID_832_" class="st1" d="M525.2,437.46c2.93,2.44,6.68,3.77,10.51,3.77h81.18v276.66c0,6.63,3.98,12.61,10.06,15.21
	c2.06,0.9,4.28,1.33,6.46,1.33c4.2,0,8.3-1.58,11.45-4.58l68.45-65.35l71.87,65.61c4.81,4.41,11.79,5.56,17.8,2.91
	c6.01-2.65,9.88-8.58,9.88-15.13V441.23h160.83c6.61,0,12.58-3.94,15.17-10.03c1.31-3.01,12.39-30.39-0.49-54.88
	c-5.52-10.5-17.65-24.1-44.01-29.38c-1.09-0.21-2.18-0.32-3.27-0.32h-405.4c-0.98,0-1.95,0.08-2.89,0.24
	c-3.42,0.61-33.53,6.61-39.92,30.83C485.73,404.99,515.44,429.42,525.2,437.46z M537.4,379.69h401.98
	c10.02,2.25,16.63,6.26,19.68,11.92c2.63,4.97,2.74,11.22,1.99,16.57h-164.7c-9.16,0-16.56,7.39-16.56,16.51v255.72l-55.58-50.75
	c-3.16-2.89-7.13-4.32-11.15-4.32c-4.09,0-8.22,1.53-11.42,4.56l-51.67,49.34V424.69c0-9.12-7.4-16.51-16.52-16.51H541.8
	c-17.24-15.23-16.9-22.01-16.9-22.07C525.57,384.31,531.58,381.05,537.4,379.69z"/>
<linearGradient id="XMLID_7_" gradientUnits="userSpaceOnUse" x1="689.9902" y1="645.2966" x2="784.7583" y2="645.2966" gradientTransform="matrix(1 0 0 1 -29.2984 -94.7016)">
	<stop  offset="0" style="stop-color:#00CCA3"/>
	<stop  offset="1" style="stop-color:#00CCA3"/>
</linearGradient>
<path id="XMLID_2_" class="st2" d="M679.65,563.76l-3.9,22.62c-0.53,3.11,0.75,6.23,3.27,8.09c1.47,1.04,3.16,1.58,4.88,1.58
	c1.32,0,2.63-0.32,3.83-0.95l20.35-10.68l20.32,10.68c2.81,1.46,6.19,1.23,8.71-0.63c2.55-1.85,3.83-4.98,3.3-8.09l-3.87-22.62
	l16.41-16.03c2.29-2.19,3.08-5.48,2.1-8.48c-0.98-3-3.57-5.18-6.65-5.62l-22.76-3.31l-10.14-20.6c-1.39-2.82-4.28-4.59-7.43-4.59
	c-3.16,0-6.01,1.77-7.4,4.59l-10.18,20.6l-22.72,3.31c-3.12,0.44-5.71,2.63-6.68,5.62c-0.98,2.99-0.15,6.29,2.1,8.48L679.65,563.76z
	 M697.18,546.07c2.7-0.39,5.03-2.08,6.23-4.53l4.66-9.47l4.66,9.47c1.2,2.45,3.53,4.14,6.23,4.53l10.48,1.52l-7.58,7.36
	c-1.91,1.91-2.82,4.66-2.36,7.32l1.8,10.41l-9.35-4.92c-1.24-0.63-2.55-0.95-3.87-0.95c-1.31,0-2.63,0.32-3.83,0.95l-9.35,4.92
	l1.76-10.4c0.49-2.67-0.41-5.43-2.37-7.33l-7.55-7.36L697.18,546.07z"/>
<path class="st3" d="M496.97,488.55c0,15.93-0.66,30.11,0.13,44.2c1.73,30.86,28.58,53.86,61.78,53.68
	c32.92-0.17,59.58-23.96,60.83-54.79c0.56-13.72,0.09-27.48,0.09-42.15c82.74,0,164.17,0,247.76,0c0,12.95-0.26,25.71,0.05,38.45
	c0.77,31.39,20.97,53.28,53.36,58.18c29.79,4.51,60.11-13.2,67.33-42.09c3.69-14.75,2.14-30.8,2.98-46.27
	c0.13-2.49,0.34-4.98,0.64-9.21c12.06,0,23.58-0.11,35.09,0.02c22.88,0.25,45.91-0.92,68.6,1.32c37.01,3.65,60.7,30.68,61.04,67.97
	c0.46,50.54,0.16,101.09,0.16,151.63c0,108.43,0.06,216.87-0.06,325.3c-0.05,47.77-27.78,75.03-75.91,75.03
	c-224.7,0.01-449.39,0.01-674.09,0c-48.3,0-75.93-27.19-75.95-75c-0.07-157.68-0.08-315.37-0.03-473.05
	c0.01-41.64,24.12-68.57,64.93-72.85c4.28-0.45,8.63-0.37,12.94-0.37C437.14,488.54,465.62,488.55,496.97,488.55z M388.78,651.34
	c0,134.13,0,267.01,0,400.5c237.14,0,473.59,0,709.83,0c0-134.19,0-267.06,0-400.5C861.87,651.34,626.01,651.34,388.78,651.34z"/>
<path class="st4" d="M526.35,469.21c-0.01-18.13-0.22-36.26,0.04-54.38c0.29-19.66,12.08-30.84,31.92-30.83
	c19.81,0.01,31.83,11.17,31.99,30.74c0.3,36.68,0.31,73.37,0.07,110.05c-0.13,19.87-11.78,30.67-31.96,30.57
	c-20.61-0.1-31.65-10.38-31.98-30.49C526.12,506.33,526.36,487.77,526.35,469.21z"/>
<path class="st4" d="M897.21,470.16c0-18.12-0.16-36.24,0.04-54.36c0.23-20.51,11.91-31.86,32.27-31.79
	c20.19,0.07,31.63,11.54,31.72,32.35c0.15,35.81,0.18,71.62,0.02,107.42c-0.09,19.92-11.16,31.32-29.7,31.28
	c-23.69-0.06-34.14-9.66-34.32-31.82C897.09,505.54,897.21,487.85,897.21,470.16z"/>
<path class="st4" d="M526.4,825.84h-39.57c-16.29,0-29.5-13.21-29.5-29.5v-40.09c0-16.29,13.21-29.5,29.5-29.5h39.57
	c16.29,0,29.5,13.21,29.5,29.5v40.09C555.9,812.64,542.69,825.84,526.4,825.84z"/>
<path class="st4" d="M644.88,726.48h40.15c16.29,0,29.5,13.21,29.5,29.5v40.15c0,16.29-13.21,29.5-29.5,29.5h-40.15
	c-16.29,0-29.5-13.21-29.5-29.5v-40.15C615.38,739.69,628.59,726.48,644.88,726.48z"/>
<path class="st4" d="M802.9,726.45h40.06c16.29,0,29.5,13.21,29.5,29.5v40.13c0,16.29-13.21,29.5-29.5,29.5H802.9
	c-16.29,0-29.5-13.21-29.5-29.5v-40.13C773.4,739.66,786.61,726.45,802.9,726.45z"/>
<path class="st4" d="M931.58,796.11v-40.07c0-16.29,13.21-29.5,29.5-29.5h39.99c16.29,0,29.5,13.21,29.5,29.5v40.07
	c0,16.29-13.21,29.5-29.5,29.5h-39.99C944.79,825.61,931.58,812.41,931.58,796.11z"/>
<path class="st4" d="M457.1,947.02v-39.48c0-16.29,13.21-29.5,29.5-29.5h40.05c16.29,0,29.5,13.21,29.5,29.5v39.48
	c0,16.29-13.21,29.5-29.5,29.5H486.6C470.31,976.52,457.1,963.31,457.1,947.02z"/>
<path class="st4" d="M614.93,947.38v-39.59c0-16.29,13.21-29.5,29.5-29.5h40.58c16.29,0,29.5,13.21,29.5,29.5v39.59
	c0,16.29-13.21,29.5-29.5,29.5h-40.58C628.14,976.87,614.93,963.67,614.93,947.38z"/>
<path class="st4" d="M842.74,976.94h-40.1c-16.29,0-29.5-13.21-29.5-29.5v-39.89c0-16.29,13.21-29.5,29.5-29.5h40.1
	c16.29,0,29.5,13.21,29.5,29.5v39.89C872.24,963.73,859.04,976.94,842.74,976.94z"/>
<path class="st4" d="M961.07,878.03h40.01c16.29,0,29.5,13.21,29.5,29.5v39.43c0,16.29-13.21,29.5-29.5,29.5h-40.01
	c-16.29,0-29.5-13.21-29.5-29.5v-39.43C931.58,891.24,944.78,878.03,961.07,878.03z"/>
</svg>
