<?xml version="1.0" encoding="utf-8"?>
<!-- Generator: Adobe Illustrator 24.0.1, SVG Export Plug-In . SVG Version: 6.00 Build 0)  -->
<svg version="1.1" id="Capa_1" xmlns="http://www.w3.org/2000/svg" xmlns:xlink="http://www.w3.org/1999/xlink" x="0px" y="0px"
	 viewBox="0 0 1500 1500" style="enable-background:new 0 0 1500 1500;" xml:space="preserve">
<style type="text/css">
	.st0{display:none;fill:url(#XMLID_5_);}
	.st1{display:none;fill:url(#XMLID_6_);}
	.st2{display:none;fill:url(#XMLID_7_);}
	.st3{fill:url(#XMLID_8_);}
	.st4{fill:url(#XMLID_9_);}
	.st5{fill:url(#XMLID_10_);}
</style>
<linearGradient id="XMLID_5_" gradientUnits="userSpaceOnUse" x1="441.0166" y1="833.338" x2="1103.9438" y2="833.338" gradientTransform="matrix(1 0 0 1 -29.2984 -94.7016)">
	<stop  offset="0" style="stop-color:#00CCA3"/>
	<stop  offset="1" style="stop-color:#00CCA3"/>
</linearGradient>
<path id="XMLID_943_" class="st0" d="M411.72,388.04v701.21c0,54.6,46.38,99.02,103.42,99.02h456.09c57,0,103.42-40.89,103.42-91.16
	V462.68c0-28.44-14.72-54.7-39.84-71.9v-2.74c0-54.62-46.38-99.04-103.42-99.04H515.14C458.1,289,411.72,333.42,411.72,388.04z
	 M444.76,388.04c0-36.38,31.58-65.98,70.37-65.98h416.25c38.79,0,70.33,29.6,70.33,65.98v11.95c0,6,3.27,11.55,8.52,14.47
	c19.6,10.87,31.32,28.9,31.32,48.22v634.43c0,32.03-31.54,58.1-70.33,58.1H515.14c-38.79,0-70.37-29.59-70.37-65.96V388.04z"/>
<linearGradient id="XMLID_6_" gradientUnits="userSpaceOnUse" x1="521.0977" y1="635.2278" x2="1023.8582" y2="635.2278" gradientTransform="matrix(1 0 0 1 -29.2984 -94.7016)">
	<stop  offset="0" style="stop-color:#00CCA3"/>
	<stop  offset="1" style="stop-color:#00CCA3"/>
</linearGradient>
<path id="XMLID_832_" class="st1" d="M525.2,437.46c2.93,2.44,6.68,3.77,10.51,3.77h81.18v276.66c0,6.63,3.98,12.61,10.06,15.21
	c2.06,0.9,4.28,1.33,6.46,1.33c4.2,0,8.3-1.58,11.45-4.58l68.45-65.35l71.87,65.61c4.81,4.41,11.79,5.56,17.8,2.91
	c6.01-2.65,9.88-8.58,9.88-15.13V441.23h160.83c6.61,0,12.58-3.94,15.17-10.03c1.31-3.01,12.39-30.39-0.49-54.88
	c-5.52-10.5-17.65-24.1-44.01-29.38c-1.09-0.21-2.18-0.32-3.27-0.32h-405.4c-0.98,0-1.95,0.08-2.89,0.24
	c-3.42,0.61-33.53,6.61-39.92,30.83C485.73,404.99,515.44,429.42,525.2,437.46z M537.4,379.69h401.98
	c10.02,2.25,16.63,6.26,19.68,11.92c2.63,4.97,2.74,11.22,1.99,16.57h-164.7c-9.16,0-16.56,7.39-16.56,16.51v255.72l-55.58-50.75
	c-3.16-2.89-7.13-4.32-11.15-4.32c-4.09,0-8.22,1.53-11.42,4.56l-51.67,49.34V424.69c0-9.12-7.4-16.51-16.52-16.51H541.8
	c-17.24-15.23-16.9-22.01-16.9-22.07C525.57,384.31,531.58,381.05,537.4,379.69z"/>
<linearGradient id="XMLID_7_" gradientUnits="userSpaceOnUse" x1="689.9902" y1="645.2966" x2="784.7583" y2="645.2966" gradientTransform="matrix(1 0 0 1 -29.2984 -94.7016)">
	<stop  offset="0" style="stop-color:#00CCA3"/>
	<stop  offset="1" style="stop-color:#00CCA3"/>
</linearGradient>
<path id="XMLID_2_" class="st2" d="M679.65,563.76l-3.9,22.62c-0.53,3.11,0.75,6.23,3.27,8.09c1.47,1.04,3.16,1.58,4.88,1.58
	c1.32,0,2.63-0.32,3.83-0.95l20.35-10.68l20.32,10.68c2.81,1.46,6.19,1.23,8.71-0.63c2.55-1.85,3.83-4.98,3.3-8.09l-3.87-22.62
	l16.41-16.03c2.29-2.19,3.08-5.48,2.1-8.48c-0.98-3-3.57-5.18-6.65-5.62l-22.76-3.31l-10.14-20.6c-1.39-2.82-4.28-4.59-7.43-4.59
	c-3.16,0-6.01,1.77-7.4,4.59l-10.18,20.6l-22.72,3.31c-3.12,0.44-5.71,2.63-6.68,5.62c-0.98,2.99-0.15,6.29,2.1,8.48L679.65,563.76z
	 M697.18,546.07c2.7-0.39,5.03-2.08,6.23-4.53l4.66-9.47l4.66,9.47c1.2,2.45,3.53,4.14,6.23,4.53l10.48,1.52l-7.58,7.36
	c-1.91,1.91-2.82,4.66-2.36,7.32l1.8,10.41l-9.35-4.92c-1.24-0.63-2.55-0.95-3.87-0.95c-1.31,0-2.63,0.32-3.83,0.95l-9.35,4.92
	l1.76-10.4c0.49-2.67-0.41-5.43-2.37-7.33l-7.55-7.36L697.18,546.07z"/>
<linearGradient id="XMLID_8_" gradientUnits="userSpaceOnUse" x1="409.8151" y1="745.2903" x2="1079.6042" y2="745.2903">
	<stop  offset="0" style="stop-color:#0DCAA0"/>
	<stop  offset="1" style="stop-color:#0DCAA0"/>
</linearGradient>
<path id="XMLID_47_" class="st3" d="M409.82,391.06v708.47c0,55.16,46.86,100.05,104.49,100.05h460.82
	c57.59,0,104.49-41.32,104.49-92.11V466.48c0-28.74-14.87-55.27-40.25-72.64v-2.77c0-55.18-46.86-100.06-104.49-100.06H514.3
	C456.67,291,409.82,335.88,409.82,391.06z M443.2,391.06c0-36.75,31.91-66.66,71.1-66.66h420.56c39.19,0,71.06,29.91,71.06,66.66
	v12.07c0,6.06,3.3,11.67,8.61,14.62c19.8,10.98,31.64,29.2,31.64,48.72v640.99c0,32.36-31.87,58.7-71.06,58.7H514.3
	c-39.19,0-71.1-29.9-71.1-66.64V391.06z"/>
<linearGradient id="XMLID_9_" gradientUnits="userSpaceOnUse" x1="490.7251" y1="465.3869" x2="998.6896" y2="465.3869">
	<stop  offset="0" style="stop-color:#0DCAA0"/>
	<stop  offset="1" style="stop-color:#0DCAA0"/>
</linearGradient>
<path id="XMLID_42_" class="st4" d="M524.47,440.99c2.96,2.47,6.75,3.81,10.62,3.81h82.02v120.04c0,6.7,4.02,12.74,10.17,15.37
	c2.09,0.91,4.32,1.35,6.52,1.35c4.25,0,8.38-1.59,11.57-4.63l69.16-66.02l72.62,66.29c4.86,4.46,11.91,5.62,17.98,2.94
	c6.07-2.67,9.98-8.67,9.98-15.29V444.81h162.5c6.68,0,12.71-3.98,15.33-10.13c1.33-3.04,12.52-30.7-0.49-55.45
	c-5.58-10.6-17.83-24.35-44.47-29.69c-1.1-0.21-2.2-0.32-3.3-0.32h-409.6c-0.99,0-1.97,0.09-2.92,0.25
	c-3.45,0.62-33.88,6.68-40.33,31.15C484.6,408.19,514.61,432.88,524.47,440.99z M536.8,382.62h406.15
	c10.13,2.27,16.81,6.32,19.88,12.05c2.66,5.02,2.77,11.33,2.01,16.74h-166.4c-9.26,0-16.73,7.47-16.73,16.68v98.88l-56.15-51.28
	c-3.19-2.92-7.21-4.36-11.27-4.36c-4.14,0-8.31,1.55-11.53,4.61l-52.21,49.85V428.1c0-9.22-7.47-16.68-16.69-16.68h-92.61
	c-17.41-15.38-17.07-22.24-17.07-22.3C524.85,387.3,530.92,384.01,536.8,382.62z"/>
<linearGradient id="XMLID_10_" gradientUnits="userSpaceOnUse" x1="577.3282" y1="829.9636" x2="927.1667" y2="829.9636">
	<stop  offset="0" style="stop-color:#0DCAA0"/>
	<stop  offset="1" style="stop-color:#0DCAA0"/>
</linearGradient>
<path id="XMLID_29_" class="st5" d="M682.56,760.24h-88.91c-9.01,0-16.32,7.31-16.32,16.35v106.78c0,9.02,7.31,16.33,16.32,16.33
	h88.91v88.86c0,9.03,7.29,16.32,16.3,16.32h106.79c9.01,0,16.32-7.29,16.32-16.32v-88.86h88.89c9.01,0,16.32-7.31,16.32-16.33
	V776.58c0-9.03-7.31-16.35-16.32-16.35h-88.89v-88.86c0-9.01-7.31-16.32-16.32-16.32H698.85c-9.01,0-16.3,7.31-16.3,16.32V760.24z
	 M789.32,687.7v88.89c0,9.02,7.29,16.32,16.32,16.32h88.86v74.13h-88.86c-9.03,0-16.32,7.31-16.32,16.33v88.87h-74.15v-88.87
	c0-9.02-7.31-16.33-16.32-16.33h-88.86V792.9h88.86c9.01,0,16.32-7.3,16.32-16.32V687.7H789.32z"/>
</svg>
