<?xml version="1.0" encoding="utf-8"?>
<!-- Generator: Adobe Illustrator 24.0.1, SVG Export Plug-In . SVG Version: 6.00 Build 0)  -->
<svg version="1.1" id="Capa_1" xmlns="http://www.w3.org/2000/svg" xmlns:xlink="http://www.w3.org/1999/xlink" x="0px" y="0px"
	 viewBox="0 0 1500 1500" style="enable-background:new 0 0 1500 1500;" xml:space="preserve">
<style type="text/css">
	.st0{fill:#00CCA3;}
	.st1{fill:#FFFFFF;}
</style>
<rect x="367.69" y="338" class="st0" width="679.38" height="786.03"/>
<g>
	<g>
		<path class="st1" d="M705.63,893.22c-26.23,0-52.46,0.02-78.7-0.01c-21.35-0.02-38.73-11.8-46.18-31.8
			c-1.76-4.72-2.84-9.98-2.9-15.01c-0.27-26.78-0.17-53.56-0.08-80.34c0.03-7.35,4.91-13.72,11.25-15.36
			c7.11-1.84,14.22,0.69,17.57,7c1.48,2.8,2.19,6.32,2.22,9.52c0.18,25.25,0.11,50.51,0.13,75.77c0.01,12.7,6.26,18.98,18.91,18.98
			c51.63-0.01,103.26-0.03,154.89-0.06c12.68-0.01,18.87-6.23,18.88-18.95c0.03-25.81,0-51.62,0.07-77.43
			c0.02-7.6,5.36-13.99,12.33-15.15c8.41-1.4,15.5,2.59,18.08,10.39c0.6,1.8,0.78,3.8,0.78,5.72c0.06,26.37,0.13,52.73,0.04,79.1
			c-0.1,26.31-21.33,47.41-47.77,47.68c-0.28,0-0.56,0-0.83,0c-26.23,0-52.46,0-78.7,0C705.63,893.25,705.63,893.24,705.63,893.22z"
			/>
		<path class="st1" d="M825.68,673.49c11.07,10.71,22.12,21.44,33.25,32.09c3.49,3.35,5.31,7.36,5.66,12.22
			c-0.66,6.28-3.31,11.36-9.41,14.04c-6.59,2.9-12.55,1.52-17.62-3.33c-9.54-9.1-18.94-18.34-28.4-27.52
			c-31.07-30.15-62.14-60.3-93.21-90.44c-7.44-7.21-14.69-7.18-22.18,0.07c-40.27,39-80.54,77.99-120.79,117
			c-4.73,4.59-10.08,6.8-16.62,4.69c-6.15-1.99-9.64-6.4-10.64-12.66c-0.88-5.5,1.31-10,5.21-13.78
			c12.76-12.36,25.5-24.73,38.26-37.09c28.21-27.32,56.4-54.65,84.63-81.95c17.21-16.64,44.73-16.79,62.07-0.13L825.68,673.49z"/>
	</g>
</g>
</svg>
