<?xml version="1.0" encoding="utf-8"?>
<!-- Generator: Adobe Illustrator 24.0.1, SVG Export Plug-In . SVG Version: 6.00 Build 0)  -->
<svg version="1.1" xmlns="http://www.w3.org/2000/svg" xmlns:xlink="http://www.w3.org/1999/xlink" x="0px" y="0px"
	 viewBox="0 0 1500 1500" style="enable-background:new 0 0 1500 1500;" xml:space="preserve">
<style type="text/css">
	.st0{display:none;fill:url(#XMLID_5_);}
	.st1{display:none;fill:url(#XMLID_6_);}
	.st2{display:none;fill:url(#XMLID_7_);}
	.st3{display:none;fill:url(#XMLID_8_);}
	.st4{display:none;fill:url(#XMLID_9_);}
	.st5{display:none;fill:url(#XMLID_10_);}
	.st6{display:none;fill:url(#XMLID_11_);}
	.st7{display:none;fill:url(#XMLID_12_);}
	.st8{display:none;fill:url(#XMLID_13_);}
	.st9{display:none;fill:url(#XMLID_14_);}
	.st10{display:none;fill:url(#XMLID_15_);}
	.st11{display:none;}
	.st12{display:inline;fill:#00CCA3;}
	.st13{display:inline;fill:#F4F4F5;}
	.st14{display:inline;fill:#F6F6F7;}
	.st15{display:inline;fill:#00A9D3;}
	.st16{display:inline;fill:#FAFAFA;}
	.st17{display:inline;fill:#003346;}
	.st18{opacity:0.99;fill:#FB0B61;}
	.st19{opacity:0.99;fill:#F6F6F7;}
	.st20{opacity:0.99;fill:#434043;}
	.st21{opacity:0.99;fill:#F4F4F5;}
</style>
<g id="Capa_1">
	
		<linearGradient id="XMLID_5_" gradientUnits="userSpaceOnUse" x1="441.0166" y1="833.338" x2="1103.9438" y2="833.338" gradientTransform="matrix(1 0 0 1 -29.2984 -94.7016)">
		<stop  offset="0" style="stop-color:#00CCA3"/>
		<stop  offset="1" style="stop-color:#00CCA3"/>
	</linearGradient>
	<path id="XMLID_943_" class="st0" d="M411.72,388.04v701.21c0,54.6,46.38,99.02,103.42,99.02h456.09
		c57,0,103.42-40.89,103.42-91.16V462.68c0-28.44-14.72-54.7-39.84-71.9v-2.74c0-54.62-46.38-99.04-103.42-99.04H515.14
		C458.1,289,411.72,333.42,411.72,388.04z M444.76,388.04c0-36.38,31.58-65.98,70.37-65.98h416.25c38.79,0,70.33,29.6,70.33,65.98
		v11.95c0,6,3.27,11.55,8.52,14.47c19.6,10.87,31.32,28.9,31.32,48.22v634.43c0,32.03-31.54,58.1-70.33,58.1H515.14
		c-38.79,0-70.37-29.59-70.37-65.96V388.04z"/>
	
		<linearGradient id="XMLID_6_" gradientUnits="userSpaceOnUse" x1="521.0977" y1="635.2278" x2="1023.8582" y2="635.2278" gradientTransform="matrix(1 0 0 1 -29.2984 -94.7016)">
		<stop  offset="0" style="stop-color:#00CCA3"/>
		<stop  offset="1" style="stop-color:#00CCA3"/>
	</linearGradient>
	<path id="XMLID_832_" class="st1" d="M525.2,437.46c2.93,2.44,6.68,3.77,10.51,3.77h81.18v276.66c0,6.63,3.98,12.61,10.06,15.21
		c2.06,0.9,4.28,1.33,6.46,1.33c4.2,0,8.3-1.58,11.45-4.58l68.45-65.35l71.87,65.61c4.81,4.41,11.79,5.56,17.8,2.91
		c6.01-2.65,9.88-8.58,9.88-15.13V441.23h160.83c6.61,0,12.58-3.94,15.17-10.03c1.31-3.01,12.39-30.39-0.49-54.88
		c-5.52-10.5-17.65-24.1-44.01-29.38c-1.09-0.21-2.18-0.32-3.27-0.32h-405.4c-0.98,0-1.95,0.08-2.89,0.24
		c-3.42,0.61-33.53,6.61-39.92,30.83C485.73,404.99,515.44,429.42,525.2,437.46z M537.4,379.69h401.98
		c10.02,2.25,16.63,6.26,19.68,11.92c2.63,4.97,2.74,11.22,1.99,16.57h-164.7c-9.16,0-16.56,7.39-16.56,16.51v255.72l-55.58-50.75
		c-3.16-2.89-7.13-4.32-11.15-4.32c-4.09,0-8.22,1.53-11.42,4.56l-51.67,49.34V424.69c0-9.12-7.4-16.51-16.52-16.51H541.8
		c-17.24-15.23-16.9-22.01-16.9-22.07C525.57,384.31,531.58,381.05,537.4,379.69z"/>
	
		<linearGradient id="XMLID_7_" gradientUnits="userSpaceOnUse" x1="689.9902" y1="645.2966" x2="784.7583" y2="645.2966" gradientTransform="matrix(1 0 0 1 -29.2984 -94.7016)">
		<stop  offset="0" style="stop-color:#00CCA3"/>
		<stop  offset="1" style="stop-color:#00CCA3"/>
	</linearGradient>
	<path id="XMLID_2_" class="st2" d="M679.65,563.76l-3.9,22.62c-0.53,3.11,0.75,6.23,3.27,8.09c1.47,1.04,3.16,1.58,4.88,1.58
		c1.32,0,2.63-0.32,3.83-0.95l20.35-10.68l20.32,10.68c2.81,1.46,6.19,1.23,8.71-0.63c2.55-1.85,3.83-4.98,3.3-8.09l-3.87-22.62
		l16.41-16.03c2.29-2.19,3.08-5.48,2.1-8.48c-0.98-3-3.57-5.18-6.65-5.62l-22.76-3.31l-10.14-20.6c-1.39-2.82-4.28-4.59-7.43-4.59
		c-3.16,0-6.01,1.77-7.4,4.59l-10.18,20.6l-22.72,3.31c-3.12,0.44-5.71,2.63-6.68,5.62c-0.98,2.99-0.15,6.29,2.1,8.48L679.65,563.76
		z M697.18,546.07c2.7-0.39,5.03-2.08,6.23-4.53l4.66-9.47l4.66,9.47c1.2,2.45,3.53,4.14,6.23,4.53l10.48,1.52l-7.58,7.36
		c-1.91,1.91-2.82,4.66-2.36,7.32l1.8,10.41l-9.35-4.92c-1.24-0.63-2.55-0.95-3.87-0.95c-1.31,0-2.63,0.32-3.83,0.95l-9.35,4.92
		l1.76-10.4c0.49-2.67-0.41-5.43-2.37-7.33l-7.55-7.36L697.18,546.07z"/>
	<linearGradient id="XMLID_8_" gradientUnits="userSpaceOnUse" x1="409.8151" y1="745.2903" x2="1079.6042" y2="745.2903">
		<stop  offset="0" style="stop-color:#0DCAA0"/>
		<stop  offset="1" style="stop-color:#0DCAA0"/>
	</linearGradient>
	<path id="XMLID_47_" class="st3" d="M409.82,391.06v708.47c0,55.16,46.86,100.05,104.49,100.05h460.82
		c57.59,0,104.49-41.32,104.49-92.11V466.48c0-28.74-14.87-55.27-40.25-72.64v-2.77c0-55.18-46.86-100.06-104.49-100.06H514.3
		C456.67,291,409.82,335.88,409.82,391.06z M443.2,391.06c0-36.75,31.91-66.66,71.1-66.66h420.56c39.19,0,71.06,29.91,71.06,66.66
		v12.07c0,6.06,3.3,11.67,8.61,14.62c19.8,10.98,31.64,29.2,31.64,48.72v640.99c0,32.36-31.87,58.7-71.06,58.7H514.3
		c-39.19,0-71.1-29.9-71.1-66.64V391.06z"/>
	<linearGradient id="XMLID_9_" gradientUnits="userSpaceOnUse" x1="490.7251" y1="465.3869" x2="998.6896" y2="465.3869">
		<stop  offset="0" style="stop-color:#0DCAA0"/>
		<stop  offset="1" style="stop-color:#0DCAA0"/>
	</linearGradient>
	<path id="XMLID_42_" class="st4" d="M524.47,440.99c2.96,2.47,6.75,3.81,10.62,3.81h82.02v120.04c0,6.7,4.02,12.74,10.17,15.37
		c2.09,0.91,4.32,1.35,6.52,1.35c4.25,0,8.38-1.59,11.57-4.63l69.16-66.02l72.62,66.29c4.86,4.46,11.91,5.62,17.98,2.94
		c6.07-2.67,9.98-8.67,9.98-15.29V444.81h162.5c6.68,0,12.71-3.98,15.33-10.13c1.33-3.04,12.52-30.7-0.49-55.45
		c-5.58-10.6-17.83-24.35-44.47-29.69c-1.1-0.21-2.2-0.32-3.3-0.32h-409.6c-0.99,0-1.97,0.09-2.92,0.25
		c-3.45,0.62-33.88,6.68-40.33,31.15C484.6,408.19,514.61,432.88,524.47,440.99z M536.8,382.62h406.15
		c10.13,2.27,16.81,6.32,19.88,12.05c2.66,5.02,2.77,11.33,2.01,16.74h-166.4c-9.26,0-16.73,7.47-16.73,16.68v98.88l-56.15-51.28
		c-3.19-2.92-7.21-4.36-11.27-4.36c-4.14,0-8.31,1.55-11.53,4.61l-52.21,49.85V428.1c0-9.22-7.47-16.68-16.69-16.68h-92.61
		c-17.41-15.38-17.07-22.24-17.07-22.3C524.85,387.3,530.92,384.01,536.8,382.62z"/>
	<linearGradient id="XMLID_10_" gradientUnits="userSpaceOnUse" x1="577.3282" y1="829.9636" x2="927.1667" y2="829.9636">
		<stop  offset="0" style="stop-color:#0DCAA0"/>
		<stop  offset="1" style="stop-color:#0DCAA0"/>
	</linearGradient>
	<path id="XMLID_29_" class="st5" d="M682.56,760.24h-88.91c-9.01,0-16.32,7.31-16.32,16.35v106.78c0,9.02,7.31,16.33,16.32,16.33
		h88.91v88.86c0,9.03,7.29,16.32,16.3,16.32h106.79c9.01,0,16.32-7.29,16.32-16.32v-88.86h88.89c9.01,0,16.32-7.31,16.32-16.33
		V776.58c0-9.03-7.31-16.35-16.32-16.35h-88.89v-88.86c0-9.01-7.31-16.32-16.32-16.32H698.85c-9.01,0-16.3,7.31-16.3,16.32V760.24z
		 M789.32,687.7v88.89c0,9.02,7.29,16.32,16.32,16.32h88.86v74.13h-88.86c-9.03,0-16.32,7.31-16.32,16.33v88.87h-74.15v-88.87
		c0-9.02-7.31-16.33-16.32-16.33h-88.86V792.9h88.86c9.01,0,16.32-7.3,16.32-16.32V687.7H789.32z"/>
	
		<linearGradient id="XMLID_11_" gradientUnits="userSpaceOnUse" x1="476.9225" y1="798.0184" x2="1158.6329" y2="798.0184" gradientTransform="matrix(1 0 0 1 -82.7984 -41.2016)">
		<stop  offset="0" style="stop-color:#00CCA3"/>
		<stop  offset="1" style="stop-color:#00CCA3"/>
	</linearGradient>
	<path id="XMLID_1074_" class="st6" d="M912.11,375.54c-12.16,14.41-3.64,37.72,13.86,61.04l-44.8,53.08
		c-34.56-5.42-71.02,6.66-95.18,35.27L521.81,837.86c-17.82,21.1-26.35,47.88-24.02,75.39c1.96,23.22,11.53,44.57,27.11,61.38
		l-127.76,151.31c-4.55,5.41-3.87,13.48,1.53,18.05c2.4,2.02,5.34,3.02,8.27,3.02c3.63,0,7.26-1.55,9.78-4.55l127.75-151.33
		c17.16,11.19,36.73,16.76,56.27,16.76c29.43,0,58.65-12.46,79.08-36.65l264.18-312.93c17.81-21.1,26.35-47.87,24.02-75.4
		c-0.72-8.44-2.53-16.57-5.16-24.4l44.71-52.97c4.76,2.46,9.4,4.61,13.89,6.37c10.98,4.34,19.75,6.03,26.76,6.03
		c11.25,0,17.96-4.35,21.91-9.03c19.2-22.74-13.01-67.66-51.06-99.79C981.01,377.03,931.31,352.82,912.11,375.54L912.11,375.54z
		 M1002.54,428.72c36.09,30.48,48.37,56.68,47.8,63.51c-3.44,0.89-12.65-0.8-25.72-6.85l1.55-1.83c2.19-2.59,3.25-5.96,2.97-9.34
		c-0.29-3.38-1.9-6.51-4.5-8.71l-62.07-52.39c-5.4-4.56-13.49-3.88-18.07,1.51l-1.53,1.82c-8.14-11.87-11.36-20.67-11.07-24.21
		C938.51,390.54,966.44,398.23,1002.54,428.72z M942.49,585.09c1.75,20.7-4.65,40.85-18.07,56.72l-6.52,7.74l-22.74-19.18
		c-4.06-3.42-10.11-2.92-13.52,1.13c-3.43,4.06-2.91,10.11,1.13,13.53l22.72,19.18l-22.32,26.44l-40.92-34.56
		c-4.07-3.43-10.12-2.89-13.53,1.15c-3.43,4.05-2.92,10.1,1.13,13.53l40.92,34.56l-24.63,29.18l-22.7-19.18
		c-4.07-3.43-10.14-2.91-13.53,1.14c-3.43,4.06-2.91,10.11,1.12,13.53l22.75,19.18l-11.18,13.23l-11.16,13.21l-40.94-34.55
		c-4.04-3.42-10.1-2.9-13.52,1.14c-3.43,4.06-2.91,10.11,1.13,13.53l40.91,34.56l-18.8,22.33l-22.75-19.18
		c-4.04-3.42-10.11-2.9-13.52,1.15c-3.43,4.05-2.91,10.11,1.13,13.54l22.72,19.17l-22.32,26.44l-40.92-34.56
		c-4.07-3.42-10.12-2.91-13.55,1.15c-3.41,4.06-2.91,10.1,1.15,13.53l40.92,34.56l-24.63,29.18l-22.7-19.18
		c-4.09-3.41-10.14-2.9-13.53,1.15c-3.43,4.06-2.91,10.12,1.12,13.53l22.74,19.18l-22.32,26.45l-40.94-34.56
		c-4.04-3.43-10.1-2.92-13.55,1.13c-3.4,4.06-2.89,10.11,1.16,13.53l40.94,34.56l-1.1,1.31c-27.68,32.76-76.84,36.92-109.61,9.26
		c-15.88-13.41-25.58-32.18-27.36-52.88c-1.73-20.71,4.7-40.85,18.1-56.73l162.37-192.31l101.8-120.61
		c13.43-15.88,32.2-25.58,52.91-27.33c2.22-0.18,4.46-0.28,6.68-0.28c18.33,0,35.89,6.4,50.05,18.36
		C931.05,545.6,940.74,564.39,942.49,585.09z M931.68,512.63c-7.37-6.22-15.42-11.13-23.76-14.95l47.91-56.74l42.5,35.87
		l-47.88,56.71C945.22,525.85,938.98,518.79,931.68,512.63z"/>
	
		<linearGradient id="XMLID_12_" gradientUnits="userSpaceOnUse" x1="531.7883" y1="799.4423" x2="998.5181" y2="799.4423" gradientTransform="matrix(1 0 0 1 -18.7984 22.7984)">
		<stop  offset="0" style="stop-color:#00CCA3"/>
		<stop  offset="1" style="stop-color:#00CCA3"/>
	</linearGradient>
	<path id="XMLID_1156_" class="st7" d="M979.72,945.41v-33.95V723.52v-24.44c0-108.47-88.27-196.72-196.74-196.72h-73.28
		c-108.47,0-196.7,88.25-196.7,196.72v24.44v187.94v33.95c0,108.47,88.23,196.72,196.7,196.72h73.28
		C891.45,1142.13,979.72,1053.88,979.72,945.41z M545.79,945.41v-17.56h401.14v17.56c0,90.37-73.56,163.91-163.95,163.91h-73.28
		C619.31,1109.31,545.79,1035.77,545.79,945.41z M709.69,535.17h73.28c90.39,0,163.95,73.53,163.95,163.91v8.04H545.79v-8.04
		C545.79,608.7,619.31,535.17,709.69,535.17z M946.92,739.91v155.14H545.79V739.91H946.92z"/>
	
		<linearGradient id="XMLID_13_" gradientUnits="userSpaceOnUse" x1="624.3337" y1="397.9426" x2="905.9346" y2="397.9426" gradientTransform="matrix(1 0 0 1 -18.7984 22.7984)">
		<stop  offset="0" style="stop-color:#00CCA3"/>
		<stop  offset="1" style="stop-color:#00CCA3"/>
	</linearGradient>
	<path id="XMLID_1079_" class="st8" d="M870.74,485.48c9.06,0,16.4-7.35,16.4-16.4v-96.68c0-9.05-7.34-16.41-16.4-16.41h-248.8
		c-9.06,0-16.4,7.36-16.4,16.41v96.68c0,9.05,7.34,16.4,16.4,16.4H870.74z M638.33,388.82h216.01v63.85H638.33V388.82z"/>
	
		<linearGradient id="XMLID_14_" gradientUnits="userSpaceOnUse" x1="328.015" y1="658.0285" x2="1063.5785" y2="658.0285" gradientTransform="matrix(1 0 0 1 45.2016 86.7984)">
		<stop  offset="0" style="stop-color:#00CCA3"/>
		<stop  offset="1" style="stop-color:#00CCA3"/>
	</linearGradient>
	<path id="XMLID_1201_" class="st9" d="M439.11,973.15c0.8,3.38,2.98,6.27,6.04,7.95c3.04,1.68,6.64,2.02,9.93,0.9
		c1.98-0.66,198.87-67.01,284.27-67.01c86.17,0,279.6,66.32,281.55,66.98c1.31,0.46,2.67,0.68,4.03,0.68c2.01,0,4.01-0.49,5.86-1.46
		c3.01-1.64,5.24-4.47,6.08-7.81l71.51-278c1.55-5.98-1.55-12.15-7.25-14.49c-0.91-0.38-53.42-21.71-134.35-40.49l18.87-73.36
		c1.54-5.96-1.55-12.15-7.25-14.49C973.9,550.68,866.39,507,733.85,507c-111.94,0-228.31,43.56-233.21,45.41
		c-5.8,2.2-9.08,8.34-7.66,14.37l17.74,75.16c-73.45,17.81-125.57,37.32-129.51,38.81c-5.8,2.2-9.08,8.34-7.66,14.38L439.11,973.15z
		 M959.01,571.59l-16.34,63.5c-59.93-12.57-132.49-22.81-210.03-22.81c-68.79,0-138.71,10.93-197.91,24.07l-15.19-64.46
		c30.67-10.49,125.37-40.21,214.31-40.21C838.73,531.67,929.57,560.98,959.01,571.59z M732.64,636.97
		c167.16,0,310.79,48.7,349.1,62.9l-65.48,254.51c-45.38-15.08-198.84-64.08-276.91-64.08c-77.34,0-233.2,48.98-279.32,64.06
		L400.11,700.2C440.12,686.22,591.2,636.97,732.64,636.97z"/>
	
		<linearGradient id="XMLID_15_" gradientUnits="userSpaceOnUse" x1="596.621" y1="678.2073" x2="794.9777" y2="678.2073" gradientTransform="matrix(1 0 0 1 45.2016 86.7984)">
		<stop  offset="0" style="stop-color:#00CCA3"/>
		<stop  offset="1" style="stop-color:#00CCA3"/>
	</linearGradient>
	<path id="XMLID_1190_" class="st10" d="M701.49,725.47h-50.41c-5.11,0-9.25,4.15-9.25,9.27v60.54c0,5.11,4.15,9.26,9.25,9.26h50.41
		v50.38c0,5.12,4.13,9.25,9.24,9.25h60.55c5.11,0,9.25-4.13,9.25-9.25v-50.38h50.4c5.11,0,9.25-4.15,9.25-9.26v-60.54
		c0-5.12-4.15-9.27-9.25-9.27h-50.4v-50.38c0-5.11-4.15-9.25-9.25-9.25h-60.55c-5.11,0-9.24,4.15-9.24,9.25V725.47z M762.02,684.34
		v50.4c0,5.11,4.13,9.25,9.25,9.25h50.38v42.03h-50.38c-5.12,0-9.25,4.15-9.25,9.26v50.39h-42.04v-50.39c0-5.11-4.15-9.26-9.25-9.26
		h-50.38v-42.03h50.38c5.11,0,9.25-4.14,9.25-9.25v-50.4H762.02z"/>
</g>
<g id="Capa_2">
	<g class="st11">
		<path class="st12" d="M959.91,1411H540.09c-228.45,0-415.36-186.91-415.36-415.36V504.36C124.73,275.91,311.64,89,540.09,89
			h419.82c228.45,0,415.36,186.91,415.36,415.36v491.28C1375.27,1224.09,1188.36,1411,959.91,1411z"/>
		<path class="st13" d="M449.04,1091.21c7.07-37.92,12.1-71.57,19.91-104.56c6.01-25.41,3.22-45.98-11.22-69.45
			c-71.79-116.71-62.52-272.08,20.02-382.42c86.04-115,232.1-167.79,365.94-132.24c140.62,37.35,243.69,152.49,261.32,291.94
			c23.02,182.04-90.77,347.54-269.32,387.47c-41.09,9.19-85.03,14.92-126.44,10.6c-35.51-3.7-68.9-25.23-104-36.44
			c-14.18-4.53-37.93-4.35-52.22-0.2C519.71,1065.57,486.87,1078.23,449.04,1091.21z M515.13,1009.33
			c18.79-4.9,28.72-5.53,36.56-9.89c26.51-14.77,48.13-6.03,74.52,5.02c38.91,16.29,81.7,30.7,123.24,31.92
			c138.58,4.06,240.74-66.07,291.14-203.33c27.73-75.52,20.54-160.62-19.88-230.18c-80.52-138.55-203.73-178.78-338.87-145.51
			c-177.58,43.72-268.31,240.6-191.98,406.12C510.74,908.78,550.26,948.22,515.13,1009.33z"/>
		<path class="st14" d="M862.73,919.39c-68.36-14.34-124.36-32.85-168.02-73.38c-35.96-33.39-69.02-71.23-97.08-111.48
			C561.79,683.09,564.23,626,596,587.98c27.33-32.71,60.38-28.46,77.53,10.07c5.24,11.78,9.11,24.26,15.19,35.56
			c11.62,21.61,9.63,39.07-7.04,58.62c-6.95,8.15-8.2,29.12-2.56,38.65c24.61,41.58,59.48,72.91,105.34,92.16
			c14.6,6.13,32.43,1.37,40.18-12.44c17.84-31.8,40.58-32.68,68.31-13.54c7.01,4.84,15.36,7.72,23.06,11.56
			c35.74,17.84,42.18,48.67,11.29,74.9C907.25,900.55,880.59,909.8,862.73,919.39z"/>
	</g>
	<g class="st11">
		<path class="st15" d="M959.91,1411H540.09c-228.45,0-415.36-186.91-415.36-415.36V504.36C124.73,275.91,311.64,89,540.09,89
			h419.82c228.45,0,415.36,186.91,415.36,415.36v491.28C1375.27,1224.09,1188.36,1411,959.91,1411z"/>
		<path class="st16" d="M440.36,976.59c60.95,4.03,118.91,1.35,166.44-39.17c-32.1-19.29-65.09-36.04-94.32-57.85
			c-17.34-12.94-30.05-33.87,2.86-50.83c-33.03-31.82-70.25-61.26-67.31-116.52c15.56,4.21,29.11,7.88,53.09,14.38
			c-54.11-54.57-62.95-109.7-37.02-173.44c73.38,79.61,164.61,118.06,266.79,134.23c3.12-28.72,1.16-55.49,9.44-78.57
			c25.92-72.24,122.86-104.36,191.85-59.8c29.97,19.36,50.93,16.9,77.5,2.43c8.9-4.85,19.07-7.36,34.09-5.16
			c-15.48,19.22-30.95,38.43-50.38,62.56c23.87-7.34,43.26-13.31,62.66-19.28c1.35,1.53,2.71,3.06,4.06,4.6
			c-15.24,17.12-31.73,33.32-45.3,51.67c-9.52,12.88-19.58,28.07-21.68,43.3c-23.28,168.28-102.52,293-271.27,345.27
			C619.15,1066.22,524.47,1044.17,440.36,976.59z"/>
	</g>
	<g class="st11">
		<path class="st17" d="M959.91,1411H540.09c-228.45,0-415.36-186.91-415.36-415.36V504.36C124.73,275.91,311.64,89,540.09,89
			h419.82c228.45,0,415.36,186.91,415.36,415.36v491.28C1375.27,1224.09,1188.36,1411,959.91,1411z"/>
		<path class="st16" d="M784.04,1148.58c-48.27-1.44-96.55-2.88-144.82-4.31c0-114.33,0-228.66,0-344.8c-42.21,0-79.66,0-117.12,0
			c-0.02-45.99-0.04-91.99-0.06-137.98c38.09,0,76.18,0,119.27,0c0-50.23-4.08-93.66,1.79-139.96
			c17.52-138.29,132.42-154.98,278.46-132.23c0,34.8,1.43,70.12-1.09,105.17c-0.57,7.92-14.34,20.42-22.89,21.17
			c-21.8,1.92-44.14-4.04-66.16-2.45c-17.53,1.27-17.38,4.97-25.62,8.79c-7.53,3.5-9.09,4.47-14.45,9.34
			c-2.09,0.94-4.6,7.82-4.24,10.09c-2.67,38.9-5.34,77.79-8.43,122.85c48.82,0,93.18,0,137.54,0c-0.02,4.96-0.03,9.93-0.05,14.89
			c-4.77,31.81-11.03,63.48-13.77,95.46c-1.7,19.78-9.63,25.52-28.29,24.82c-30.59-1.15-61.25-0.31-92.84-0.31
			c0,42.73-0.29,80.28,0.06,117.83C782.05,994.17,783.11,1071.38,784.04,1148.58z"/>
	</g>
	<g>
		<path class="st18" d="M959.91,1411H540.09c-228.45,0-415.36-186.91-415.36-415.36V504.36C124.73,275.91,311.64,89,540.09,89
			h419.82c228.45,0,415.36,186.91,415.36,415.36v491.28C1375.27,1224.09,1188.36,1411,959.91,1411z"/>
		<path class="st19" d="M1122.91,884.87c-15.1,85.2-55.55,152.75-135.78,191.37c-30.09,14.49-61.21,23.85-96.16,23.22
			c-97.88-1.77-195.83,0.19-293.74-0.73c-132.97-1.24-234.12-103.83-234.32-236.33c-0.13-82.85-0.45-165.71,0.05-248.56
			c0.83-136.99,102.44-238.12,239.14-238.4c92.54-0.19,185.07-0.22,277.61,0.03c126.68,0.34,220.96,82.12,239.7,207.34
			c0.61,4.09,2.6,7.97,3.94,11.95C1123.21,691.46,1123.06,788.17,1122.91,884.87z M470.06,482.53l2.43,1.97l-2.37-2.05
			c-2.17,2.18-4.34,4.36-6.49,6.5c-1.96,2.53-3.92,5.06-5.88,7.59l0.34-0.47c-4.65,6.39-9.3,12.78-13.95,19.17l1.66,1.66l-1.47-1.83
			c-9.59,33.35-25.77,66.37-27.45,100.11c-4.04,81.4-4.24,163.3,0.08,244.68c1.85,34.77,18.85,68.73,28.96,103.06
			c33.27,53.64,83.11,81.07,144.57,82.47c101,2.3,202.14,2.66,303.14,0.15c96.88-2.41,171.23-79.6,172.43-173.53
			c-0.02-90.24-0.04-180.49-0.06-270.73c-0.15-2.37-0.29-4.74-0.44-7.11c0.75-1.99,0.56-3.89-0.58-5.68
			c-3.99-15.86-7.98-31.73-11.97-47.59c0.38-2.02-0.34-3.49-2.17-4.42c-3.69-7.14-7.38-14.28-11.07-21.41
			c0.08-2.37-1.01-3.89-3.28-4.57c-7.17-8.65-14.35-17.31-21.52-25.96c-2.19-2.07-4.38-4.15-6.56-6.22c-3.33-3.12-6.67-6.24-10-9.36
			l-0.41-0.49c-32.07-28.95-70.92-39.43-112.81-39.64c-95.73-0.47-191.46-0.51-287.19,0.08c-39.44,0.25-76.52,9.55-107.52,35.98
			c-2.01,1.51-4.03,3.01-6.04,4.52c-2.67,2.28-5.33,4.57-8,6.85l2.1,0.97l-1.97-1.22C474.4,478.18,472.23,480.35,470.06,482.53z"/>
		<path class="st20" d="M1036.49,510.49c-7.17-8.65-14.35-17.31-21.52-25.96C1022.14,493.18,1029.32,501.83,1036.49,510.49z"/>
		<path class="st20" d="M458.09,496.08c-4.65,6.39-9.3,12.78-13.95,19.17C448.79,508.86,453.44,502.47,458.09,496.08z"/>
		<path class="st20" d="M1008.41,478.31c-3.33-3.12-6.67-6.23-10-9.35C1001.74,472.07,1005.07,475.19,1008.41,478.31z"/>
		<path class="st20" d="M463.63,488.95c-1.96,2.53-3.92,5.06-5.88,7.59C459.71,494.02,461.67,491.48,463.63,488.95z"/>
		<path class="st20" d="M484.43,469.4c-2.66,2.28-5.32,4.57-7.99,6.85C479.1,473.97,481.77,471.69,484.43,469.4z"/>
		<path class="st20" d="M470.12,482.46c-2.17,2.18-4.34,4.36-6.51,6.53C465.77,486.81,467.95,484.63,470.12,482.46z"/>
		<path class="st20" d="M476.58,476c-2.17,2.18-4.34,4.36-6.51,6.53C472.23,480.35,474.4,478.18,476.58,476z"/>
		<path class="st21" d="M742.86,529.02C858.82,530.09,951,623.65,950.01,739.3c-0.97,113.49-95.31,207.27-207.7,207.31
			c-121.32,0.04-209.78-103.34-209.82-209.43C532.44,622.96,628.58,527.98,742.86,529.02z M892.32,736.11
			c12.17-80.33-63.76-155.05-152.35-153.17c-102.3,2.16-155.86,83.89-152.77,161.2c3.33,83.14,73.48,150.12,159.05,148.49
			C833.7,890.96,906.51,809.22,892.32,736.11z"/>
		<path class="st21" d="M946.14,492.35c23.06-0.45,42.51,18.17,43.59,41.73c1.12,24.34-19.19,46.21-42.9,46.2
			c-22.18-0.01-43.17-20.12-44.2-42.36C901.51,513.69,921.42,492.83,946.14,492.35z"/>
	</g>
</g>
</svg>
