<?xml version="1.0" encoding="utf-8"?>
<!-- Generator: Adobe Illustrator 24.0.1, SVG Export Plug-In . SVG Version: 6.00 Build 0)  -->
<svg version="1.1" id="Capa_1" xmlns="http://www.w3.org/2000/svg" xmlns:xlink="http://www.w3.org/1999/xlink" x="0px" y="0px"
	 viewBox="0 0 1337 336" style="enable-background:new 0 0 1337 336;" xml:space="preserve">
<style type="text/css">
	.st0{fill:#003346;}
	.st1{fill:#00CCA3;}
	.st2{fill:#F80E43;}
	.st3{fill:#F4F9FC;}
</style>
<g id="LOGO_9_">
	<g>
		<path class="st0" d="M67.19,204.76V98.55c0-1.07,0.54-1.61,1.61-1.61h11.1c1.07,0,1.61,0.54,1.61,1.61v44.9
			c0,0.64,0.32,0.97,0.97,0.97h47.47c0.64,0,0.97-0.32,0.97-0.97v-44.9c0-1.07,0.54-1.61,1.61-1.61h11.1c1.07,0,1.61,0.54,1.61,1.61
			v106.21c0,1.07-0.54,1.61-1.61,1.61h-11.1c-1.07,0-1.61-0.54-1.61-1.61v-46.02c0-0.64-0.32-0.97-0.97-0.97H82.48
			c-0.64,0-0.97,0.32-0.97,0.97v46.02c0,1.07-0.54,1.61-1.61,1.61H68.8C67.73,206.37,67.19,205.84,67.19,204.76z"/>
		<path class="st0" d="M172.27,204.76V98.55c0-1.07,0.54-1.61,1.61-1.61h65.82c1.07,0,1.61,0.54,1.61,1.61v10.14
			c0,1.07-0.54,1.61-1.61,1.61h-52.14c-0.64,0-0.97,0.32-0.97,0.97v32.18c0,0.64,0.32,0.97,0.97,0.97h44.25
			c1.07,0,1.61,0.54,1.61,1.61v10.14c0,1.07-0.54,1.61-1.61,1.61h-44.25c-0.64,0-0.97,0.32-0.97,0.97v33.31
			c0,0.64,0.32,0.97,0.97,0.97h52.14c1.07,0,1.61,0.54,1.61,1.61v10.14c0,1.07-0.54,1.61-1.61,1.61h-65.82
			C172.81,206.37,172.27,205.84,172.27,204.76z"/>
		<path class="st0" d="M253.22,204.76L291.2,98.55c0.32-1.07,0.97-1.61,1.93-1.61h10.46c1.07,0,1.77,0.54,2.09,1.61l37.5,106.21
			c0.32,1.07-0.06,1.61-1.13,1.61h-11.26c-1.07,0-1.77-0.54-2.09-1.61l-8.37-23.82h-44.25l-8.37,23.82
			c-0.43,1.07-1.13,1.61-2.09,1.61h-11.26C253.27,206.37,252.9,205.84,253.22,204.76z M280.73,167.75h34.92l-17.22-49.73h-0.32
			L280.73,167.75z"/>
		<path class="st0" d="M360.55,204.76V98.55c0-1.07,0.54-1.61,1.61-1.61h11.1c1.07,0,1.61,0.54,1.61,1.61v93.5
			c0,0.64,0.32,0.97,0.97,0.97h52.14c1.07,0,1.61,0.54,1.61,1.61v10.14c0,1.07-0.54,1.61-1.61,1.61h-65.82
			C361.09,206.37,360.55,205.84,360.55,204.76z"/>
		<path class="st0" d="M467.89,206.37h-11.1c-1.07,0-1.61-0.54-1.61-1.61v-93.5c0-0.64-0.32-0.97-0.97-0.97h-29.93
			c-1.07,0-1.61-0.54-1.61-1.61V98.54c0-1.07,0.54-1.61,1.61-1.61h76.12c1.07,0,1.61,0.54,1.61,1.61v10.14
			c0,1.07-0.54,1.61-1.61,1.61h-29.93c-0.64,0-0.97,0.32-0.97,0.97v93.5C469.5,205.84,468.96,206.37,467.89,206.37z"/>
		<path class="st0" d="M519.06,204.76V98.55c0-1.07,0.54-1.61,1.61-1.61h11.1c1.07,0,1.61,0.54,1.61,1.61v44.9
			c0,0.64,0.32,0.97,0.97,0.97h47.47c0.64,0,0.97-0.32,0.97-0.97v-44.9c0-1.07,0.54-1.61,1.61-1.61h11.1c1.07,0,1.61,0.54,1.61,1.61
			v106.21c0,1.07-0.54,1.61-1.61,1.61h-11.1c-1.07,0-1.61-0.54-1.61-1.61v-46.02c0-0.64-0.32-0.97-0.97-0.97h-47.47
			c-0.64,0-0.97,0.32-0.97,0.97v46.02c0,1.07-0.54,1.61-1.61,1.61h-11.1C519.59,206.37,519.06,205.84,519.06,204.76z"/>
	</g>
	<g>
		<path class="st0" d="M922.25,212.69h-11.1c-1.07,0-1.61-0.54-1.61-1.61v-106.2c0-1.07,0.54-1.61,1.61-1.61h38.94
			c10.51,0,18.93,2.98,25.26,8.93c6.33,5.95,9.49,13.87,9.49,23.74c0,9.87-3.17,17.78-9.49,23.74c-6.33,5.95-14.75,8.93-25.26,8.93
			h-25.27c-0.64,0-0.96,0.32-0.96,0.97v41.52C923.86,212.16,923.32,212.69,922.25,212.69z M949.29,155.24
			c6.76,0,12.01-1.71,15.77-5.15c3.75-3.43,5.63-8.15,5.63-14.16c0-6.01-1.88-10.73-5.63-14.16c-3.76-3.43-9.01-5.15-15.77-5.15
			h-24.46c-0.64,0-0.96,0.32-0.96,0.97v36.69c0,0.64,0.32,0.97,0.96,0.97h24.46V155.24z"/>
		<path class="st0" d="M1004.8,211.08v-106.2c0-1.07,0.54-1.61,1.61-1.61h65.82c1.07,0,1.61,0.54,1.61,1.61v10.14
			c0,1.07-0.54,1.61-1.61,1.61h-52.14c-0.64,0-0.96,0.32-0.96,0.97v32.18c0,0.64,0.32,0.97,0.96,0.97h44.25
			c1.07,0,1.61,0.54,1.61,1.61v10.14c0,1.07-0.54,1.61-1.61,1.61h-44.25c-0.64,0-0.96,0.32-0.96,0.97v33.31
			c0,0.64,0.32,0.97,0.96,0.97h52.14c1.07,0,1.61,0.54,1.61,1.61v10.14c0,1.07-0.54,1.61-1.61,1.61h-65.82
			C1005.34,212.69,1004.8,212.16,1004.8,211.08z"/>
		<path class="st0" d="M1171.68,212.69h-12.87c-0.97,0-1.66-0.54-2.09-1.61l-21.89-44.74h-24.14c-0.64,0-0.96,0.32-0.96,0.97v43.77
			c0,1.07-0.54,1.61-1.61,1.61h-11.1c-1.07,0-1.61-0.54-1.61-1.61v-106.2c0-1.07,0.54-1.61,1.61-1.61h39.59
			c10.19,0,18.45,2.9,24.78,8.69c6.33,5.79,9.49,13.41,9.49,22.85c0,7.3-1.93,13.55-5.79,18.75c-3.86,5.21-9.12,8.88-15.77,11.02
			l23.33,46.19c0.32,0.43,0.37,0.86,0.16,1.29C1172.59,212.48,1172.21,212.69,1171.68,212.69z M1136.28,152.99
			c6.33,0,11.29-1.61,14.89-4.83c3.59-3.22,5.39-7.67,5.39-13.36s-1.8-10.14-5.39-13.36c-3.6-3.22-8.56-4.83-14.89-4.83h-25.59
			c-0.64,0-0.96,0.32-0.96,0.97v34.44c0,0.64,0.32,0.97,0.96,0.97H1136.28z"/>
		<path class="st0" d="M1232.67,214.46c-12.23,0-21.75-3.46-28.56-10.38s-10.22-16.76-10.22-29.53v-69.68
			c0-1.07,0.54-1.61,1.61-1.61h11.1c1.07,0,1.61,0.54,1.61,1.61v69.52c0,8.69,2.2,15.32,6.6,19.87c4.4,4.56,10.35,6.84,17.86,6.84
			c7.4,0,13.3-2.28,17.7-6.84c4.4-4.56,6.6-11.18,6.6-19.87v-69.52c0-1.07,0.54-1.61,1.61-1.61h11.1c1.07,0,1.61,0.54,1.61,1.61
			v69.68c0,12.77-3.41,22.61-10.22,29.53C1254.25,211,1244.79,214.46,1232.67,214.46z"/>
	</g>
	<g>
		<g>
			<path class="st1" d="M660.15,302.99c-12.65,0-25.29-4.82-34.92-14.44c-9.33-9.33-14.47-21.73-14.47-34.93s5.14-25.6,14.47-34.93
				L806.25,37.67c19.26-19.25,50.59-19.25,69.85,0c19.26,19.26,19.26,50.6,0,69.85L695.08,288.54
				C685.45,298.17,672.8,302.99,660.15,302.99z M841.17,38.88c-8.64,0-17.27,3.29-23.85,9.86L636.3,229.77
				c-6.37,6.37-9.88,14.84-9.88,23.85s3.51,17.48,9.88,23.85c13.15,13.15,34.54,13.16,47.7,0L865.02,96.45
				c13.15-13.15,13.15-34.55,0-47.7C858.45,42.17,849.81,38.88,841.17,38.88z"/>
		</g>
		<g>
			<path class="st0" d="M814.79,289.91L623.85,98.97c-17.12-17.12-17.12-44.87,0-61.99l0,0c17.12-17.12,44.87-17.12,61.99,0
				l190.94,190.94c17.12,17.12,17.12,44.87,0,61.99l0,0C859.67,307.03,831.91,307.03,814.79,289.91z"/>
		</g>
	</g>
	<path class="st0" d="M1233.58,98.82h6.91c1.03,0,1.76,0.87,1.42,1.7l-3.82,9.4l-3.09,7.61c-0.47,1.15-2.37,1.15-2.84,0l-3.09-7.61
		l-3.82-9.4c-0.34-0.83,0.39-1.7,1.42-1.7H1233.58z"/>
	<circle class="st2" cx="656.94" cy="70.68" r="28.38"/>
	<path class="st3" d="M648.13,97.65c2.78,0.91,5.74,1.41,8.82,1.41c3,0,5.89-0.47,8.6-1.33v-54.1c-2.71-0.86-5.6-1.33-8.6-1.33
		c-3.08,0-6.04,0.51-8.82,1.41V97.65z"/>
</g>
</svg>
